# xmcd
#
# Track frame offsets:
#	150
#	12759
#	27418
#	41229
#	61582
#	73430
#	86831
#	100834
#	112311
#	127743
#	141650
#	153908
#	165140
#	178368
#	193518
#	207087
#
# Disc length: 2951 seconds
#
# Revision: 10
# Processed by: cddbd v1.5.2PL0 Copyright (c) Steve Scherf et al.
# Submitted via: audiograbber 1.83.01
#
DISCID=e20b8510
DTITLE=Various Artist - Die goldene Schlagerbox  - Die fetzigen Fetenhits(CD 2)
DYEAR=1998
DGENRE=Schlager
TTITLE0=Udo Jürgens  - Der Teufel hat den Schnaps gemacht
TTITLE1=Wolfgang Petry - Der Himmel brennt
TTITLE2=Costa Cordalis - Anita
TTITLE3=Dschingis Khan - Moskau
TTITLE4=Drafi Deutscher - Marmor, Stein und Eisen bricht
TTITLE5=Benny - Amigo Charly Brown
TTITLE6=Rex Gildo - Fiesta Mexicana
TTITLE7=Michael Holm - Mendocino
TTITLE8=Nina and Mike - Paloma Blanca
TTITLE9=Fred Sonnenschein und seine Freunde - Ja, wenn wir alle Englein wären
TTITLE10=Heino - Caramba, Caracho, ein Whisky
TTITLE11=Juergen Marcus - Ein Festival der Liebe
TTITLE12=Cindy and Bert - Aber am Abend, da spielt der Zigeuner
TTITLE13=Dennie Christian - Rosamunde
TTITLE14=Marianne Rosenberg - Er gehört zu mir
TTITLE15=Roland Kaiser - Sieben Fässer Wein
EXTD=
EXTT0=
EXTT1=
EXTT2=
EXTT3=
EXTT4=
EXTT5=
EXTT6=
EXTT7=
EXTT8=
EXTT9=
EXTT10=
EXTT11=
EXTT12=
EXTT13=
EXTT14=
EXTT15=
PLAYORDER=
